<svg xmlns="http://www.w3.org/2000/svg" version="1.1" xmlns:xlink="http://www.w3.org/1999/xlink" xmlns:svgjs="http://svgjs.dev/svgjs" width="2000" height="466" viewBox="0 0 2000 466"><g transform="matrix(1,0,0,1,-0.3091596791134634,0.46208628811743324)"><svg viewBox="0 0 253 59" data-background-color="#ffffff" preserveAspectRatio="xMidYMid meet" height="466" width="2000" xmlns="http://www.w3.org/2000/svg" xmlns:xlink="http://www.w3.org/1999/xlink"><g id="tight-bounds" transform="matrix(1,0,0,1,0.03910869940784778,0.21420000000000528)"><svg viewBox="0 0 252.92178260118433 58.571600000000004" height="58.571600000000004" width="252.92178260118433"><g><svg viewBox="0 0 252.92178260118433 58.571600000000004" height="58.571600000000004" width="252.92178260118433"><g><svg viewBox="0 0 252.92178260118433 58.571600000000004" height="58.571600000000004" width="252.92178260118433"><g id="textblocktransform"><svg viewBox="0 0 252.92178260118433 58.571600000000004" height="58.571600000000004" width="252.92178260118433" id="textblock"><g><svg viewBox="0 0 252.92178260118433 58.571600000000004" height="58.571600000000004" width="252.92178260118433"><g><svg><g></g><g></g></svg></g><g><svg><g><svg></svg></g><g></g></svg></g><g id="text-0"><svg viewBox="0 0 252.92178260118433 58.571600000000004" height="58.571600000000004" width="252.92178260118433"><g transform="matrix(1,0,0,1,0,11.1358)"><svg width="89.10000000000001" viewBox="5.4 -35.1 89.1 35.1" height="35.1" data-palette-color="#b6a522"><path d="M5.55-35L8.5-34.9 16.35-35Q29.25-35 29.25-25.45L29.25-25.45Q29.25-19.95 25.48-16.9 21.7-13.85 15.8-13.85L15.8-13.85Q13.75-13.85 11.5-14.3L11.5-14.3 11.5-6.75Q11.5-2.65 12.45-0.3L12.45-0.3 12.45 0 5.4 0 5.4-0.35Q6.35-2.9 6.35-7.5L6.35-7.5 6.35-26.65Q6.35-31.9 5.55-34.65L5.55-34.65 5.55-35ZM23.6-24.95L23.6-24.95Q23.6-32.45 16.4-32.45L16.4-32.45Q12.75-32.45 11.6-32.3L11.6-32.3Q11.5-30.95 11.5-23.5L11.5-23.5 11.5-16.65Q13.45-16.1 15.55-16.1L15.55-16.1Q19.5-16.1 21.55-18.43 23.6-20.75 23.6-24.95ZM36.55-35L39.45-34.9Q48.7-35.05 48.85-35.05L48.85-35.05Q57.7-35.05 62.05-31.03 66.4-27 66.4-18.65L66.4-18.65Q66.4-13.4 64.75-9.3L64.75-9.3Q61 0 49 0L49 0 39.5-0.05 36.55-0.05 36.55-0.4Q37.35-3.5 37.35-10.55L37.35-10.55 37.35-24.5Q37.35-31.55 36.55-34.65L36.55-34.65 36.55-35ZM48.8-3.4L48.8-3.4Q54.85-3.4 57.45-4.95L57.45-4.95Q60.75-8.7 60.75-17.18 60.75-25.65 57.72-28.85 54.7-32.05 47.55-32.05L47.55-32.05Q47.4-32.05 42.6-32L42.6-32Q42.5-30.1 42.5-19.7L42.5-19.7 42.5-16.7Q42.5-5.2 42.7-3.7L42.7-3.7Q45.7-3.4 48.8-3.4ZM90.3-16L89.94-16Q87.25-16.4 84.62-16.4 82-16.4 80.19-16.3L80.19-16.3 80.19-10.55Q80.19-3.45 81-0.35L81-0.35 81 0 74.25 0 74.25-0.35Q75.05-3.45 75.05-10.5L75.05-10.5 75.05-24.45Q75.05-31.5 74.25-34.6L74.25-34.6 74.25-34.95 94.5-35.1 93.25-31.3 92.89-31.3Q89.75-32.1 85.64-32.1 81.55-32.1 80.39-32L80.39-32Q80.19-30.5 80.19-19.35L80.19-19.35 91.89-19.6 90.3-16Z" opacity="1" transform="matrix(1,0,0,1,0,0)" fill="#b6a522" class="undefined-tk-0"></path></svg></g><g><svg xmlns="http://www.w3.org/2000/svg" xmlns:xlink="http://www.w3.org/1999/xlink" version="1.1" x="102.92840000000001" y="0" viewBox="0 0 100 132.6200001682541" enable-background="new 0 0 100 132.619" xml:space="preserve" id="dxe-0" width="44.16498260118429" height="58.571600000000004" class="icon-dxe-0" data-fill-palette-color="accent"><path d="M80.287 21.685V0H2.977A2.977 2.977 0 0 0 0 2.977V129.644A2.976 2.976 0 0 0 2.976 132.62H97.023A2.976 2.976 0 0 0 100 129.644V24.661H83.264A2.977 2.977 0 0 1 80.287 21.685M12.62 21.846A2.977 2.977 0 0 1 15.596 18.869H45.953A2.977 2.977 0 0 1 48.93 21.846V22.739A2.977 2.977 0 0 1 45.953 25.716H15.596A2.976 2.976 0 0 1 12.62 22.739zM90.596 116.489A2.976 2.976 0 0 1 87.619 119.465H15.596A2.975 2.975 0 0 1 12.62 116.489V115.595A2.976 2.976 0 0 1 15.596 112.619H87.619A2.976 2.976 0 0 1 90.596 115.595zM90.596 97.739A2.976 2.976 0 0 1 87.619 100.715H15.596A2.975 2.975 0 0 1 12.62 97.739V96.845A2.976 2.976 0 0 1 15.596 93.869H87.619A2.976 2.976 0 0 1 90.596 96.845zM90.596 78.989A2.976 2.976 0 0 1 87.619 81.965H15.596A2.975 2.975 0 0 1 12.62 78.989V78.095A2.976 2.976 0 0 1 15.596 75.119H87.619A2.976 2.976 0 0 1 90.596 78.095zM90.596 60.239A2.976 2.976 0 0 1 87.619 63.215H15.596A2.975 2.975 0 0 1 12.62 60.239V59.345A2.976 2.976 0 0 1 15.596 56.369H87.619A2.976 2.976 0 0 1 90.596 59.345zM90.596 40.596V41.489A2.977 2.977 0 0 1 87.619 44.466H15.596A2.976 2.976 0 0 1 12.62 41.489V40.596A2.977 2.977 0 0 1 15.596 37.619H87.619A2.977 2.977 0 0 1 90.596 40.596" fill="#000000" data-fill-palette-color="accent"></path><path d="M97.023 0H80.287L100 24.661V2.977A2.977 2.977 0 0 0 97.023 0" fill="#000000" data-fill-palette-color="accent"></path></svg></g><g transform="matrix(1,0,0,1,160.9217826011843,10.6858)"><svg width="92.00000000000001" viewBox="2.45 -35.6 92 36.2" height="36.2" data-palette-color="#b6a522"><path d="M32.8-13.65L31.3-13.65Q31.3-6.75 31.65-3.9L31.65-3.9Q24.5 0.6 17.8 0.6 11.1 0.6 6.78-4.17 2.45-8.95 2.45-16.82 2.45-24.7 7.23-30.15 12-35.6 19.9-35.6L19.9-35.6Q26.25-35.6 32-31.3L32-31.3Q30.15-29.35 27.25-27.55L27.25-27.55Q23.85-32.05 17.3-32.05L17.3-32.05Q14.55-32.05 12.95-31.55L12.95-31.55Q8.1-27.45 8.1-18.35L8.1-18.35Q8.1-3.1 19.95-3.1L19.95-3.1Q24.2-3.1 26.25-4.4L26.25-4.4Q26.85-7.5 26.85-13.3L26.85-13.3 20.3-13.3 22.4-16.6Q26.35-16.3 29.25-16.3 32.15-16.3 34.2-16.4L34.2-16.4 32.8-13.65ZM58.7-31.4L58.35-31.4Q55.4-32.15 51.22-32.15 47.05-32.15 45.9-32.05L45.9-32.05Q45.8-30.15 45.8-19.75L45.8-19.75 57.7-20 56.25-16.55 55.9-16.55Q52.5-16.95 50.5-16.95 48.5-16.95 45.8-16.8L45.8-16.8Q45.8-4.65 46-3.15L46-3.15Q47.15-3 49.8-3L49.8-3Q57.65-3 61.25-4.6L61.25-4.6 61.6-4.6 60.7 0 39.75 0 39.75-0.35Q40.55-3.45 40.55-10.5L40.55-10.5 40.55-24.5Q40.55-31.55 39.75-34.65L39.75-34.65 39.75-35 59.95-35.15 58.7-31.4ZM71.65-0.35L71.65 0 66.59 0 66.59-0.35Q67.34-3.65 67.34-11.95L67.34-11.95 67.34-23.15Q67.34-30.85 66.7-34.65L66.7-34.65 66.7-35 72.75-35.45 90.25-8.25 90.25-24.5Q90.25-27.15 89.95-30.28 89.65-33.4 89.2-34.65L89.2-34.65 89.2-35 94.45-35 94.45-34.65Q93.7-31.35 93.7-23.05L93.7-23.05 93.7-10.5Q93.7-7.5 93.92-4.08 94.15-0.65 94.34 0L94.34 0 89.65 0.5 70.75-28.75 70.75-10.5Q70.75-3.85 71.65-0.35L71.65-0.35Z" opacity="1" transform="matrix(1,0,0,1,0,0)" fill="#b6a522" class="undefined-tk-1"></path></svg></g></svg></g></svg></g></svg></g></svg></g><g></g></svg></g><defs></defs></svg><rect width="252.92178260118433" height="58.571600000000004" fill="none" stroke="none" visibility="hidden"></rect></g></svg></g></svg>